<svg width="99" height="14" viewBox="0 0 99 14" fill="none" xmlns="http://www.w3.org/2000/svg">
<path d="M18.036 0.436103L14.526 13.0001H11.556L9.198 4.0541L6.732 13.0001L3.78 13.0181L0.395996 0.436103H3.096L5.31 10.1921L7.866 0.436103H10.674L13.086 10.1381L15.318 0.436103H18.036Z" fill="white"/>
<path d="M26.5134 13.1261C25.3374 13.1261 24.2574 12.8501 23.2734 12.2981C22.2894 11.7461 21.5094 10.9841 20.9334 10.0121C20.3574 9.0281 20.0694 7.9181 20.0694 6.6821C20.0694 5.4581 20.3574 4.3601 20.9334 3.3881C21.5094 2.4041 22.2894 1.6361 23.2734 1.0841C24.2574 0.532103 25.3374 0.256104 26.5134 0.256104C27.7014 0.256104 28.7814 0.532103 29.7534 1.0841C30.7374 1.6361 31.5114 2.4041 32.0754 3.3881C32.6514 4.3601 32.9394 5.4581 32.9394 6.6821C32.9394 7.9181 32.6514 9.0281 32.0754 10.0121C31.5114 10.9841 30.7374 11.7461 29.7534 12.2981C28.7694 12.8501 27.6894 13.1261 26.5134 13.1261ZM26.5134 10.8761C27.2694 10.8761 27.9355 10.7081 28.5114 10.3721C29.0875 10.0241 29.5375 9.5321 29.8615 8.8961C30.1854 8.2601 30.3474 7.5221 30.3474 6.6821C30.3474 5.8421 30.1854 5.1101 29.8615 4.4861C29.5375 3.8501 29.0875 3.3641 28.5114 3.0281C27.9355 2.6921 27.2694 2.5241 26.5134 2.5241C25.7574 2.5241 25.0854 2.6921 24.4974 3.0281C23.9214 3.3641 23.4714 3.8501 23.1474 4.4861C22.8234 5.1101 22.6614 5.8421 22.6614 6.6821C22.6614 7.5221 22.8234 8.2601 23.1474 8.8961C23.4714 9.5321 23.9214 10.0241 24.4974 10.3721C25.0854 10.7081 25.7574 10.8761 26.5134 10.8761Z" fill="white"/>
<path d="M42.2943 13.0001L39.5223 8.1041H38.3343V13.0001H35.8143V0.436103H40.5303C41.5023 0.436103 42.3303 0.610103 43.0143 0.958103C43.6983 1.2941 44.2083 1.7561 44.5443 2.3441C44.8923 2.9201 45.0663 3.5681 45.0663 4.2881C45.0663 5.1161 44.8263 5.8661 44.3463 6.5381C43.8663 7.1981 43.1523 7.6541 42.2043 7.9061L45.2103 13.0001H42.2943ZM38.3343 6.2141H40.4403C41.1243 6.2141 41.6343 6.0521 41.9703 5.7281C42.3063 5.3921 42.4743 4.9301 42.4743 4.3421C42.4743 3.7661 42.3063 3.3221 41.9703 3.0101C41.6343 2.6861 41.1243 2.5241 40.4403 2.5241H38.3343V6.2141Z" fill="white"/>
<path d="M55.4375 13.0001L50.8655 7.4021V13.0001H48.3455V0.436103H50.8655V6.0701L55.4375 0.436103H58.4795L53.2955 6.6641L58.6235 13.0001H55.4375Z" fill="white"/>
<path d="M67.1131 13.1261C65.9371 13.1261 64.8571 12.8501 63.8731 12.2981C62.8891 11.7461 62.1091 10.9841 61.5331 10.0121C60.9571 9.0281 60.6691 7.9181 60.6691 6.6821C60.6691 5.4581 60.9571 4.3601 61.5331 3.3881C62.1091 2.4041 62.8891 1.6361 63.8731 1.0841C64.8571 0.532103 65.9371 0.256104 67.1131 0.256104C68.3011 0.256104 69.3811 0.532103 70.3531 1.0841C71.3371 1.6361 72.1111 2.4041 72.6751 3.3881C73.2511 4.3601 73.5391 5.4581 73.5391 6.6821C73.5391 7.9181 73.2511 9.0281 72.6751 10.0121C72.1111 10.9841 71.3371 11.7461 70.3531 12.2981C69.3691 12.8501 68.2891 13.1261 67.1131 13.1261ZM67.1131 10.8761C67.8691 10.8761 68.5351 10.7081 69.1111 10.3721C69.6871 10.0241 70.1371 9.5321 70.4611 8.8961C70.7851 8.2601 70.9471 7.5221 70.9471 6.6821C70.9471 5.8421 70.7851 5.1101 70.4611 4.4861C70.1371 3.8501 69.6871 3.3641 69.1111 3.0281C68.5351 2.6921 67.8691 2.5241 67.1131 2.5241C66.3571 2.5241 65.6851 2.6921 65.0971 3.0281C64.5211 3.3641 64.0711 3.8501 63.7471 4.4861C63.4231 5.1101 63.2611 5.8421 63.2611 6.6821C63.2611 7.5221 63.4231 8.2601 63.7471 8.8961C64.0711 9.5321 64.5211 10.0241 65.0971 10.3721C65.6851 10.7081 66.3571 10.8761 67.1131 10.8761Z" fill="white"/>
<path d="M78.8979 0.436103V8.2121C78.8979 9.0641 79.1199 9.7181 79.5639 10.1741C80.0079 10.6181 80.6319 10.8401 81.4359 10.8401C82.2519 10.8401 82.8819 10.6181 83.3259 10.1741C83.7699 9.7181 83.9919 9.0641 83.9919 8.2121V0.436103H86.5299V8.1941C86.5299 9.2621 86.2959 10.1681 85.8279 10.9121C85.3719 11.6441 84.7539 12.1961 83.9739 12.5681C83.2059 12.9401 82.3479 13.1261 81.3999 13.1261C80.4639 13.1261 79.6119 12.9401 78.8439 12.5681C78.0879 12.1961 77.4879 11.6441 77.0439 10.9121C76.5999 10.1681 76.3779 9.2621 76.3779 8.1941V0.436103H78.8979Z" fill="white"/>
<path d="M98.5147 0.436103V2.4701H95.1666V13.0001H92.6467V2.4701H89.2987V0.436103H98.5147Z" fill="white"/>
</svg>
